<svg xmlns="http://www.w3.org/2000/svg" viewBox="0 0 512 512"><path d="M360 408H152c-4.422 0-8-3.582-8-8s3.578-8 8-8h208c4.422 0 8 3.582 8 8s-3.578 8-8 8z" fill="#c9a07c"/><path d="M359.953 7.102A8.009 8.009 0 0 0 352 0h-32.203a8.024 8.024 0 0 0-5.969 2.668 8.032 8.032 0 0 0-1.984 6.23l4.516 40A8.009 8.009 0 0 0 324.313 56h32.203a8.024 8.024 0 0 0 5.969-2.668 8.032 8.032 0 0 0 1.984-6.23l-4.516-40zm33.422 295.999a8.009 8.009 0 0 0-7.953-7.102h-32.203a8.024 8.024 0 0 0-5.969 2.668 8.032 8.032 0 0 0-1.984 6.23l22.578 200a8.009 8.009 0 0 0 7.953 7.102H408a8.024 8.024 0 0 0 5.969-2.668 8.032 8.032 0 0 0 1.984-6.23l-22.578-200zM198.07 2.668A8.02 8.02 0 0 0 192.102 0h-32.203a8.009 8.009 0 0 0-7.953 7.102l-4.516 40a8.034 8.034 0 0 0 1.984 6.23A8.022 8.022 0 0 0 155.383 56h32.203a8.009 8.009 0 0 0 7.953-7.102l4.516-40a8.032 8.032 0 0 0-1.985-6.23zm-33.422 296a8.022 8.022 0 0 0-5.969-2.668h-32.203a8.009 8.009 0 0 0-7.953 7.102l-22.578 200a8.034 8.034 0 0 0 1.984 6.23 8.02 8.02 0 0 0 5.969 2.668h32.203a8.009 8.009 0 0 0 7.953-7.102l22.578-200a8.028 8.028 0 0 0-1.984-6.23z" fill="#e6be8a"/><path d="M440 40H72c-8.82 0-16 7.176-16 16v240c0 8.824 7.18 16 16 16h368c8.82 0 16-7.176 16-16V56c0-8.824-7.18-16-16-16z" fill="#00a077"/><path d="M456 344H56c-4.422 0-8-3.582-8-8s3.578-8 8-8h400c4.422 0 8 3.582 8 8s-3.578 8-8 8zM144 512H88c-4.422 0-8-3.582-8-8s3.578-8 8-8h56c4.422 0 8 3.582 8 8s-3.578 8-8 8zm280 0h-56c-4.422 0-8-3.582-8-8s3.578-8 8-8h56c4.422 0 8 3.582 8 8s-3.578 8-8 8z" fill="#c9a07c"/><path d="M344 104H240a7.99 7.99 0 0 0-7.633 5.613L199.07 216.144l-23.641-59.117a8.006 8.006 0 0 0-7.43-5.027h-32c-4.422 0-8 3.582-8 8s3.578 8 8 8h26.586l29.984 74.973a8.01 8.01 0 0 0 7.43 5.027c.102 0 .203-.004.313-.008a7.986 7.986 0 0 0 7.32-5.605L245.883 120H344c4.422 0 8-3.582 8-8s-3.578-8-8-8z" fill="#fff"/><path d="M332.703 145.531c-3.586-2.605-8.578-1.813-11.172 1.762L296 182.398l-25.531-35.105c-2.594-3.574-7.594-4.363-11.172-1.762a7.995 7.995 0 0 0-1.766 11.176L286.108 196l-28.577 39.293a7.993 7.993 0 0 0 1.766 11.176 7.943 7.943 0 0 0 4.695 1.531 7.98 7.98 0 0 0 6.477-3.293L296 209.601l25.531 35.105a7.98 7.98 0 0 0 6.477 3.293 7.94 7.94 0 0 0 4.695-1.531 7.995 7.995 0 0 0 1.766-11.176L305.892 196l28.577-39.293a7.995 7.995 0 0 0-1.766-11.176z" fill="#fff"/></svg>