<svg xmlns="http://www.w3.org/2000/svg" viewBox="0 0 512 512"><path d="M432.552 512H79.448c-9.751 0-17.655-7.904-17.655-17.655V26.483c0-9.751 7.904-17.655 17.655-17.655h353.103c9.751 0 17.655 7.904 17.655 17.655v467.862c.001 9.75-7.904 17.655-17.654 17.655z" fill="#ffd782"/><path d="M97.103 494.345a8.829 8.829 0 0 1-8.828-8.828V35.31a8.829 8.829 0 0 1 17.656 0v450.207a8.829 8.829 0 0 1-8.828 8.828z" fill="#ffc36e"/><path d="M370.759 247.172h-185.38c-9.751 0-17.655-7.904-17.655-17.655v-70.621c0-9.751 7.904-17.655 17.655-17.655h185.379c9.751 0 17.655 7.904 17.655 17.655v70.621c.001 9.751-7.904 17.655-17.654 17.655z" fill="#fff"/><path d="M326.621 185.379H220.69a8.829 8.829 0 0 1 0-17.656h105.931a8.829 8.829 0 0 1 0 17.656zm17.655 35.311H203.034a8.829 8.829 0 0 1 0-17.656h141.241a8.828 8.828 0 1 1 .001 17.656z" fill="#707487"/><path d="M132.644 82.237l17.425-11.616 17.425 11.616c3.872 2.582 9.058-.194 9.058-4.847V8.828A8.829 8.829 0 0 0 167.724 0h-35.31a8.829 8.829 0 0 0-8.828 8.828V77.39c0 4.652 5.186 7.429 9.058 4.847z" fill="#ff6464"/></svg>