<svg xmlns="http://www.w3.org/2000/svg" viewBox="0 0 512 512"><path d="M472.949 95.458h-34.712l-26.034-60.746H281.071L256 0l-25.071 34.712H99.797L73.763 95.458H39.051L4.339 199.593h17.356v277.695h468.61V199.593h17.356zM4.339 477.288h503.322V512H4.339z" fill="#8c4f53"/><path fill="#dc4b5a" d="M368.814 477.288H143.186V156.203L256 0l112.814 156.203z"/><path d="M368.814 156.203v43.39h138.847L472.949 95.458H324.938zm-225.628 0l43.876-60.745H39.051L4.339 199.593h138.847z" fill="#af6d6f"/><path d="M21.695 199.593h121.492v277.695H21.695zm347.119 0h121.492v277.695H368.814z" fill="#f78b9a"/><circle cx="256" cy="164.881" r="52.068" fill="#fff"/><g fill="#7383bf"><path d="M256 173.559c-4.79 0-8.678-3.888-8.678-8.678v-17.356c0-4.79 3.888-8.678 8.678-8.678 4.79 0 8.678 3.888 8.678 8.678v17.356a8.68 8.68 0 0 1-8.678 8.678z"/><path d="M273.356 173.559H256c-4.79 0-8.678-3.888-8.678-8.678s3.888-8.678 8.678-8.678h17.356c4.79 0 8.678 3.888 8.678 8.678s-3.888 8.678-8.678 8.678z"/></g><path d="M177.898 251.661h52.068v78.102h-52.068zm0 112.814h52.068v78.102h-52.068zM56.407 251.661h52.068v78.102H56.407zm0 112.814h52.068v78.102H56.407zm347.118-112.814h52.068v78.102h-52.068zm0 112.814h52.068v78.102h-52.068zM282.034 251.661h52.068v78.102h-52.068zm0 112.814h52.068v78.102h-52.068z" fill="#d3e3f9"/><path d="M73.763 95.458h113.291l43.875-60.746H99.797zm364.474 0H324.946l-43.875-60.746h131.132z" fill="#8c4f53"/></svg>